<?xml version="1.0" encoding="UTF-8"?>
<svg version="1.1" viewBox="0 0 2000 2000" xmlns="http://www.w3.org/2000/svg">
 <g transform="translate(0 947.64)">
  <g transform="matrix(4.5975 0 0 4.5975 -371.17 -3404.2)">
   <circle cx="298.4" cy="752.62" r="97.741" fill="none" stroke="#000" stroke-linecap="round" stroke-linejoin="round" stroke-width="4"/>
   <circle cx="298.4" cy="752.62" r="56.583" fill="none" stroke="#000" stroke-linecap="round" stroke-linejoin="round" stroke-width="2.3156"/>
   <g transform="translate(119.37 146.5)" fill="none" stroke="#000" stroke-linecap="round" stroke-linejoin="round" stroke-width="2.3936">
    <path d="m215.86 604.81s-18.116 11.859-24.359 11.859c-6.2426 0-11.303-5.0606-11.303-11.303 0-6.2426 5.0606-11.303 11.303-11.303 6.2426 0 24.359 10.748 24.359 10.748z"/>
    <path d="m179.59 642.19s-11.859-18.116-11.859-24.359c0-6.2426 5.0606-11.303 11.303-11.303 6.2426 0 11.303 5.0606 11.303 11.303 0 6.2426-10.748 24.359-10.748 24.359z"/>
    <path d="m178.48 568.53s11.859 18.116 11.859 24.359c0 6.2426-5.0606 11.303-11.303 11.303-6.2426 0-11.303-5.0606-11.303-11.303 0-6.2426 10.748-24.359 10.748-24.359z"/>
    <path d="m142.2 605.92s18.116-11.859 24.359-11.859c6.2426 0 11.303 5.0606 11.303 11.303 0 6.2426-5.0606 11.303-11.303 11.303-6.2426 0-24.359-10.748-24.359-10.748z"/>
    <path d="m152.6 579.71s21.195 4.4247 25.61 8.8388 4.4142 11.571-1e-5 15.985c-4.4142 4.4142-11.571 4.4142-15.985 1e-5s-9.6245-24.824-9.6245-24.824z"/>
    <path d="m204.68 578.93s-4.4247 21.195-8.8388 25.61-11.571 4.4142-15.985-1e-5c-4.4142-4.4142-4.4142-11.571-1e-5 -15.985s24.824-9.6245 24.824-9.6245z"/>
    <path d="m205.46 631.01s-21.195-4.4247-25.61-8.8388-4.4142-11.571 1e-5 -15.985c4.4142-4.4142 11.571-4.4142 15.985-1e-5s9.6245 24.824 9.6245 24.824z"/>
    <path d="m153.38 631.8s4.4247-21.195 8.8388-25.61 11.571-4.4142 15.985 1e-5c4.4142 4.4142 4.4142 11.571 1e-5 15.985s-24.824 9.6245-24.824 9.6245z"/>
   </g>
   <g fill="none" stroke="#000" stroke-linecap="round" stroke-linejoin="round" stroke-width="1.9877">
    <path transform="matrix(.50379 .86383 -.86383 .50379 0 0)" d="m750.96 87.461a9.0061 9.0061 0 0 1 -4.5031 7.7995l-4.5031-7.7995z"/>
    <path transform="matrix(-.86383 .50379 -.50379 -.86383 0 0)" d="m72.322-833.48a9.0061 9.0061 0 0 1 -4.5031 7.7995l-4.5031-7.7995z"/>
    <path transform="matrix(-.50379 -.86383 .86383 -.50379 0 0)" d="m-848.62-154.84a9.0061 9.0061 0 0 1 -4.5031 7.7995l-4.5031-7.7995z"/>
    <path transform="matrix(.86383 -.50379 .50379 .86383 0 0)" d="m-169.98 766.1a9.0061 9.0061 0 0 1 -4.5031 7.7995l-4.5031-7.7995z"/>
    <path transform="matrix(.96705 .25458 -.25458 .96705 0 0)" d="m431.04 617.52a9.0061 9.0061 0 0 1 -4.5031 7.7995l-4.5031-7.7995z"/>
    <path transform="matrix(-.25458 .96705 -.96705 -.25458 0 0)" d="m602.38-513.56a9.0061 9.0061 0 0 1 -4.5031 7.7995l-4.5031-7.7995z"/>
    <path transform="matrix(-.96705 -.25458 .25458 -.96705 0 0)" d="m-528.7-684.9a9.0061 9.0061 0 0 1 -4.5031 7.7995l-4.5031-7.7995z"/>
    <path transform="matrix(.25458 -.96705 .96705 .25458 0 0)" d="m-700.04 446.18a9.0061 9.0061 0 0 1 -4.5031 7.7995l-4.5031-7.7995z"/>
    <path transform="matrix(.60528 -.79601 .79601 .60528 0 0)" d="m-466.83 658.86a9.0061 9.0061 0 0 1 -4.5031 7.7995l-4.5031-7.7995z"/>
    <path transform="matrix(.79601 .60528 -.60528 .79601 0 0)" d="m643.72 384.31a9.0061 9.0061 0 0 1 -4.5031 7.7995l-4.5031-7.7995z"/>
    <path transform="matrix(-.60528 .79601 -.79601 -.60528 0 0)" d="m369.17-726.24a9.0061 9.0061 0 0 1 -4.5031 7.7995l-4.5031-7.7995z"/>
    <path transform="matrix(-.79601 -.60528 .60528 -.79601 0 0)" d="m-741.38-451.69a9.0061 9.0061 0 0 1 -4.5031 7.7995l-4.5031-7.7995z"/>
    <path transform="matrix(.99086 -.13487 .13487 .99086 0 0)" d="m145.31 751.59a9.0061 9.0061 0 0 1 -4.5031 7.7995l-4.5031-7.7995z"/>
    <path transform="matrix(.13487 .99086 -.99086 .13487 0 0)" d="m736.45-227.83a9.0061 9.0061 0 0 1 -4.5031 7.7995l-4.5031-7.7995z"/>
    <path transform="matrix(-.99086 .13487 -.13487 -.99086 0 0)" d="m-242.97-818.97a9.0061 9.0061 0 0 1 -4.5031 7.7995l-4.5031-7.7995z"/>
    <path transform="matrix(-.13487 -.99086 .99086 -.13487 0 0)" d="m-834.11 160.45a9.0061 9.0061 0 0 1 -4.5031 7.7995l-4.5031-7.7995z"/>
   </g>
   <g transform="matrix(.98079 .19509 -.19509 .98079 152.42 -43.743)" fill="none" stroke="#000" stroke-linecap="round" stroke-linejoin="round" stroke-width="1.9877">
    <path transform="matrix(.50379 .86383 -.86383 .50379 0 0)" d="m750.96 87.461a9.0061 9.0061 0 0 1 -4.5031 7.7995l-4.5031-7.7995z"/>
    <path transform="matrix(-.86383 .50379 -.50379 -.86383 0 0)" d="m72.322-833.48a9.0061 9.0061 0 0 1 -4.5031 7.7995l-4.5031-7.7995z"/>
    <path transform="matrix(-.50379 -.86383 .86383 -.50379 0 0)" d="m-848.62-154.84a9.0061 9.0061 0 0 1 -4.5031 7.7995l-4.5031-7.7995z"/>
    <path transform="matrix(.86383 -.50379 .50379 .86383 0 0)" d="m-169.98 766.1a9.0061 9.0061 0 0 1 -4.5031 7.7995l-4.5031-7.7995z"/>
    <path transform="matrix(.96705 .25458 -.25458 .96705 0 0)" d="m431.04 617.52a9.0061 9.0061 0 0 1 -4.5031 7.7995l-4.5031-7.7995z"/>
    <path transform="matrix(-.25458 .96705 -.96705 -.25458 0 0)" d="m602.38-513.56a9.0061 9.0061 0 0 1 -4.5031 7.7995l-4.5031-7.7995z"/>
    <path transform="matrix(-.96705 -.25458 .25458 -.96705 0 0)" d="m-528.7-684.9a9.0061 9.0061 0 0 1 -4.5031 7.7995l-4.5031-7.7995z"/>
    <path transform="matrix(.25458 -.96705 .96705 .25458 0 0)" d="m-700.04 446.18a9.0061 9.0061 0 0 1 -4.5031 7.7995l-4.5031-7.7995z"/>
    <path transform="matrix(.60528 -.79601 .79601 .60528 0 0)" d="m-466.83 658.86a9.0061 9.0061 0 0 1 -4.5031 7.7995l-4.5031-7.7995z"/>
    <path transform="matrix(.79601 .60528 -.60528 .79601 0 0)" d="m643.72 384.31a9.0061 9.0061 0 0 1 -4.5031 7.7995l-4.5031-7.7995z"/>
    <path transform="matrix(-.60528 .79601 -.79601 -.60528 0 0)" d="m369.17-726.24a9.0061 9.0061 0 0 1 -4.5031 7.7995l-4.5031-7.7995z"/>
    <path transform="matrix(-.79601 -.60528 .60528 -.79601 0 0)" d="m-741.38-451.69a9.0061 9.0061 0 0 1 -4.5031 7.7995l-4.5031-7.7995z"/>
    <path transform="matrix(.99086 -.13487 .13487 .99086 0 0)" d="m145.31 751.59a9.0061 9.0061 0 0 1 -4.5031 7.7995l-4.5031-7.7995z"/>
    <path transform="matrix(.13487 .99086 -.99086 .13487 0 0)" d="m736.45-227.83a9.0061 9.0061 0 0 1 -4.5031 7.7995l-4.5031-7.7995z"/>
    <path transform="matrix(-.99086 .13487 -.13487 -.99086 0 0)" d="m-242.97-818.97a9.0061 9.0061 0 0 1 -4.5031 7.7995l-4.5031-7.7995z"/>
    <path transform="matrix(-.13487 -.99086 .99086 -.13487 0 0)" d="m-834.11 160.45a9.0061 9.0061 0 0 1 -4.5031 7.7995l-4.5031-7.7995z"/>
   </g>
   <g fill="none" stroke="#000" stroke-linecap="round" stroke-linejoin="round" stroke-width="2.8724">
    <path d="m298.23 648.73s13.585-18.285 13.585-10.794-6.0727 13.564-13.564 13.564-13.564-6.0727-13.564-13.564 13.543 10.794 13.543 10.794z"/>
    <path d="m401.37 751.91s18.285 13.585 10.794 13.585-13.564-6.0727-13.564-13.564 6.0727-13.564 13.564-13.564-10.794 13.543-10.794 13.543z"/>
    <path d="m298.2 855.05s-13.585 18.285-13.585 10.794 6.0727-13.564 13.564-13.564 13.564 6.0727 13.564 13.564-13.543-10.794-13.543-10.794z"/>
    <path d="m195.05 751.88s-18.285-13.585-10.794-13.585 13.564 6.0727 13.564 13.564-6.0727 13.564-13.564 13.564 10.794-13.543 10.794-13.543z"/>
    <path d="m225.28 678.94s-3.3236-22.536 1.9734-17.239 5.297 13.885 0 19.182-13.885 5.297-19.182 0 17.209-1.9435 17.209-1.9435z"/>
    <path d="m371.17 678.96s22.536-3.3236 17.239 1.9734-13.885 5.297-19.182 0-5.297-13.885 0-19.182 1.9435 17.209 1.9435 17.209z"/>
    <path d="m371.15 824.85s3.3236 22.536-1.9734 17.239-5.297-13.885 0-19.182 13.885-5.297 19.182 0-17.209 1.9435-17.209 1.9435z"/>
    <path d="m225.26 824.83s-22.536 3.3236-17.239-1.9734 13.885-5.297 19.182 0 5.297 13.885 0 19.182-1.9435-17.209-1.9435-17.209z"/>
    <path d="m202.91 712.4s-11.695-19.548-4.7738-16.682c6.9209 2.8667 10.207 10.801 7.3407 17.722-2.8667 6.9209-10.801 10.207-17.722 7.3407-6.9209-2.8667 15.155-8.3811 15.155-8.3811z"/>
    <path d="m337.7 656.59s19.548-11.695 16.682-4.7738c-2.8667 6.9209-10.801 10.207-17.722 7.3407-6.9209-2.8667-10.207-10.801-7.3407-17.722 2.8667-6.9209 8.3811 15.155 8.3811 15.155z"/>
    <path d="m393.51 791.38s11.695 19.548 4.7738 16.682c-6.9209-2.8667-10.207-10.801-7.3407-17.722 2.8667-6.9209 10.801-10.207 17.722-7.3407 6.9209 2.8667-15.155 8.3811-15.155 8.3811z"/>
    <path d="m258.72 847.19s-19.548 11.695-16.682 4.7738c2.8667-6.9209 10.801-10.207 17.722-7.3407 6.9209 2.8667 10.207 10.801 7.3407 17.722-2.8667 6.9209-8.3811-15.155-8.3811-15.155z"/>
    <path d="m202.9 791.36s-22.092-5.5534-15.171-8.4201c6.9209-2.8667 14.855 0.41983 17.722 7.3407 2.8667 6.9209-0.41981 14.855-7.3407 17.722-6.9209 2.8667 4.79-16.643 4.79-16.643z"/>
    <path d="m258.75 656.58s5.5534-22.092 8.4201-15.171c2.8667 6.9209-0.41983 14.855-7.3407 17.722-6.9209 2.8667-14.855-0.41981-17.722-7.3407-2.8667-6.9209 16.643 4.79 16.643 4.79z"/>
    <path d="m393.52 712.43s22.092 5.5534 15.171 8.4201c-6.9209 2.8667-14.855-0.41983-17.722-7.3407-2.8667-6.9209 0.41981-14.855 7.3407-17.722 6.9209-2.8667-4.79 16.643-4.79 16.643z"/>
    <path d="m337.68 847.21s-5.5534 22.092-8.4201 15.171c-2.8667-6.9209 0.41983-14.855 7.3407-17.722 6.9209-2.8667 14.855 0.41981 17.722 7.3407 2.8667 6.9209-16.643-4.79-16.643-4.79z"/>
   </g>
   <circle cx="298.4" cy="752.62" r="139.23" fill="none" stroke="#000" stroke-linecap="round" stroke-linejoin="round" stroke-width="3"/>
   <g transform="matrix(-.99452 -.10453 -.10453 .99452 673.46 35.295)" fill="none" stroke="#000" stroke-linecap="round" stroke-linejoin="round" stroke-width="2.3936">
    <path d="m298.32 575.06s11.555 18.311 11.451 24.553c-0.10405 6.2417-5.2483 11.217-11.49 11.113-6.2417-0.10404-11.217-5.2483-11.113-11.49 0.10404-6.2417 11.152-24.176 11.152-24.176z"/>
    <path d="m475.08 751.96s-18.311 11.555-24.553 11.451c-6.2417-0.10405-11.217-5.2483-11.113-11.49 0.10404-6.2417 5.2483-11.217 11.49-11.113 6.2417 0.10404 24.176 11.152 24.176 11.152z"/>
    <path d="m298.18 928.71s-11.555-18.311-11.451-24.553c0.10405-6.2417 5.2483-11.217 11.49-11.113 6.2417 0.10404 11.217 5.2483 11.113 11.49-0.10404 6.2417-11.152 24.176-11.152 24.176z"/>
    <path d="m121.43 751.82s18.311-11.555 24.553-11.451c6.2417 0.10405 11.217 5.2483 11.113 11.49-0.10404 6.2417-5.2483 11.217-11.49 11.113-6.2417-0.10404-24.176-11.152-24.176-11.152z"/>
    <path d="m173.27 626.8s21.119 4.7773 25.459 9.2644 4.2207 11.643-0.26643 15.983c-4.4871 4.34-11.643 4.2207-15.983-0.26641-4.34-4.4871-9.2094-24.981-9.2094-24.981z"/>
    <path d="m423.34 626.9s-4.7773 21.119-9.2644 25.459-11.643 4.2207-15.983-0.26643c-4.34-4.4871-4.2207-11.643 0.26641-15.983 4.4871-4.34 24.981-9.2094 24.981-9.2094z"/>
    <path d="m423.23 876.97s-21.119-4.7773-25.459-9.2644-4.2207-11.643 0.26643-15.983c4.4871-4.34 11.643-4.2207 15.983 0.26641 4.34 4.4871 9.2094 24.981 9.2094 24.981z"/>
    <path d="m173.17 876.87s4.7773-21.119 9.2644-25.459 11.643-4.2207 15.983 0.26643c4.34 4.4871 4.2207 11.643-0.26641 15.983-4.4871 4.34-24.981 9.2094-24.981 9.2094z"/>
    <path d="m134.86 819.49s12.495-17.683 18.302-19.975c5.8064-2.2925 12.372 0.55613 14.664 6.3625 2.2925 5.8064-0.55611 12.372-6.3625 14.664-5.8064 2.2925-26.604-1.0514-26.604-1.0514z"/>
    <path d="m230.65 588.5s17.683 12.495 19.975 18.302c2.2925 5.8064-0.55613 12.372-6.3625 14.664-5.8064 2.2925-12.372-0.55611-14.664-6.3625-2.2925-5.8064 1.0514-26.604 1.0514-26.604z"/>
    <path d="m461.64 684.29s-12.495 17.683-18.302 19.975c-5.8064 2.2925-12.372-0.55613-14.664-6.3625-2.2925-5.8064 0.55611-12.372 6.3625-14.664 5.8064-2.2925 26.604 1.0514 26.604 1.0514z"/>
    <path d="m365.85 915.28s-17.683-12.495-19.975-18.302c-2.2925-5.8064 0.55613-12.372 6.3625-14.664 5.8064-2.2925 12.372 0.55611 14.664 6.3625 2.2925 5.8064-1.0514 26.604-1.0514 26.604z"/>
    <path d="m134.91 684.15s21.339-3.6681 27.066-1.1834c5.7268 2.4847 8.355 9.1414 5.8702 14.868-2.4847 5.7268-9.1414 8.355-14.868 5.8702-5.7268-2.4847-18.068-19.555-18.068-19.555z"/>
    <path d="m365.99 588.55s3.6681 21.339 1.1834 27.066c-2.4847 5.7268-9.1414 8.355-14.868 5.8702-5.7268-2.4847-8.355-9.1414-5.8702-14.868 2.4847-5.7268 19.555-18.068 19.555-18.068z"/>
    <path d="m461.59 819.62s-21.339 3.6681-27.066 1.1834c-5.7268-2.4847-8.355-9.1414-5.8702-14.868 2.4847-5.7268 9.1414-8.355 14.868-5.8702 5.7268 2.4847 18.068 19.555 18.068 19.555z"/>
    <path d="m230.52 915.22s-3.6681-21.339-1.1834-27.066c2.4847-5.7268 9.1414-8.355 14.868-5.8702 5.7268 2.4847 8.355 9.1414 5.8702 14.868-2.4847 5.7268-19.555 18.068-19.555 18.068z"/>
    <path d="m199.95 898.87s0.56545-21.645 4.1197-26.777c3.5542-5.132 10.596-6.411 15.728-2.8568s6.411 10.596 2.8568 15.728-22.704 13.906-22.704 13.906z"/>
    <path d="m151.27 653.59s21.645 0.56545 26.777 4.1197c5.132 3.5542 6.411 10.596 2.8568 15.728s-10.596 6.411-15.728 2.8568-13.906-22.704-13.906-22.704z"/>
    <path d="m396.55 604.9s-0.56545 21.645-4.1197 26.777c-3.5542 5.132-10.596 6.411-15.728 2.8568s-6.411-10.596-2.8568-15.728 22.704-13.906 22.704-13.906z"/>
    <path d="m445.24 850.19s-21.645-0.56545-26.777-4.1197c-5.132-3.5542-6.411-10.596-2.8568-15.728s10.596-6.411 15.728-2.8568 13.906 22.704 13.906 22.704z"/>
    <path d="m124.81 786.31s15.705-14.905 21.847-16.021c6.1421-1.1156 12.026 2.9591 13.141 9.1011 1.1156 6.1421-2.9591 12.026-9.1011 13.141-6.1421 1.1157-25.887-6.2213-25.887-6.2213z"/>
    <path d="m263.83 578.45s14.905 15.705 16.021 21.847c1.1156 6.1421-2.9591 12.026-9.1011 13.141-6.1421 1.1156-12.026-2.9591-13.141-9.1011-1.1157-6.1421 6.2213-25.887 6.2213-25.887z"/>
    <path d="m471.69 717.46s-15.705 14.905-21.847 16.021c-6.1421 1.1156-12.026-2.9591-13.141-9.1011-1.1156-6.1421 2.9591-12.026 9.1011-13.141 6.1421-1.1157 25.887 6.2213 25.887 6.2213z"/>
    <path d="m332.68 925.33s-14.905-15.705-16.021-21.847c-1.1156-6.1421 2.9591-12.026 9.1011-13.141 6.1421-1.1156 12.026 2.9591 13.141 9.1011 1.1157 6.1421-6.2213 25.887-6.2213 25.887z"/>
    <path d="m263.68 925.3s-7.7608-20.214-6.441-26.315c1.3197-6.1015 7.3358-9.9778 13.437-8.6581 6.1015 1.3198 9.9778 7.3358 8.6581 13.437-1.3197 6.1015-15.654 21.536-15.654 21.536z"/>
    <path d="m124.84 717.32s20.214-7.7608 26.315-6.441c6.1015 1.3197 9.9778 7.3358 8.6581 13.437-1.3198 6.1015-7.3358 9.9778-13.437 8.6581-6.1015-1.3197-21.536-15.654-21.536-15.654z"/>
    <path d="m332.82 578.47s7.7608 20.214 6.441 26.315c-1.3197 6.1015-7.3358 9.9778-13.437 8.6581-6.1015-1.3198-9.9778-7.3358-8.6581-13.437 1.3197-6.1015 15.654-21.536 15.654-21.536z"/>
    <path d="m471.66 786.45s-20.214 7.7608-26.315 6.441c-6.1015-1.3197-9.9778-7.3358-8.6581-13.437 1.3198-6.1015 7.3358-9.9778 13.437-8.6581 6.1015 1.3197 21.536 15.654 21.536 15.654z"/>
    <path d="m396.43 898.95s-19.781-8.8056-23.162-14.053c-3.3812-5.2476-1.8682-12.243 3.3794-15.624 5.2476-3.3812 12.243-1.8682 15.624 3.3794 3.3812 5.2476 4.159 26.298 4.159 26.298z"/>
    <path d="m151.19 850.07s8.8056-19.781 14.053-23.162c5.2476-3.3812 12.243-1.8682 15.624 3.3794 3.3812 5.2476 1.8682 12.243-3.3794 15.624-5.2476 3.3812-26.298 4.159-26.298 4.159z"/>
    <path d="m200.07 604.82s19.781 8.8056 23.162 14.053c3.3812 5.2476 1.8682 12.243-3.3794 15.624-5.2476 3.3812-12.243 1.8682-15.624-3.3794-3.3812-5.2476-4.159-26.298-4.159-26.298z"/>
    <path d="m445.32 653.71s-8.8056 19.781-14.053 23.162c-5.2476 3.3812-12.243 1.8682-15.624-3.3794-3.3812-5.2476-1.8682-12.243 3.3794-15.624 5.2476-3.3812 26.298-4.159 26.298-4.159z"/>
   </g>
   <g fill="none" stroke="#000" stroke-linecap="round" stroke-linejoin="round" stroke-width="2.984">
    <path d="m324.48 674.58s5.6432 2.4054 10.756-0.88323c6.6473-4.2753-3.7207-8.857-2.5833-1.1664 0.88945 6.0141 6.0152 8.456 6.0152 8.456l-9.1349 1.3165z"/>
    <path d="m375.58 778.07s-2.4054 5.6432 0.88323 10.756c4.2753 6.6473 8.857-3.7207 1.1664-2.5833-6.0141 0.88945-8.456 6.0152-8.456 6.0152l-1.3165-9.1349z"/>
    <path d="m272.09 829.18s-5.6432-2.4054-10.756 0.88324c-6.6473 4.2753 3.7207 8.857 2.5833 1.1664-0.88945-6.0141-6.0152-8.456-6.0152-8.456l9.1349-1.3165z"/>
    <path d="m220.99 725.68s2.4054-5.6432-0.88324-10.756c-4.2753-6.6473-8.857 3.7207-1.1664 2.5833 6.0141-0.88945 8.456-6.0152 8.456-6.0152l1.3165 9.1349z"/>
    <path d="m244.44 690.54s4.9048-3.6844 4.6133-9.757c-0.3789-7.8944-9.5307-1.2063-2.3018 1.654 5.6531 2.2368 10.331-0.98135 10.331-0.98135l-3.4273 8.5693z"/>
    <path d="m359.62 698.03s3.6844 4.9048 9.757 4.6133c7.8944-0.37891 1.2063-9.5307-1.654-2.3018-2.2368 5.6531 0.98135 10.331 0.98135 10.331l-8.5693-3.4273z"/>
    <path d="m352.13 813.21s-4.9048 3.6844-4.6133 9.757c0.37891 7.8944 9.5307 1.2063 2.3018-1.654-5.6531-2.2368-10.331 0.98135-10.331 0.98135l3.4273-8.5693z"/>
    <path d="m236.95 805.72s-3.6844-4.9048-9.757-4.6133c-7.8944 0.37892-1.2063 9.5307 1.654 2.3018 2.2368-5.6531-0.98135-10.331-0.98135-10.331l8.5693 3.4273z"/>
    <path d="m218.25 767.84s-0.73844-6.0899-6.1431-8.8737c-7.0262-3.6191-5.81 7.6507 0.2815 2.8204 4.7637-3.7773 4.3154-9.4373 4.3154-9.4373l5.7076 7.2528z"/>
    <path d="m282.32 671.84s6.0899-0.73845 8.8738-6.1431c3.6191-7.0262-7.6507-5.81-2.8204 0.28151 3.7773 4.7636 9.4373 4.3154 9.4373 4.3154l-7.2528 5.7076z"/>
    <path d="m378.33 735.91s0.73845 6.0899 6.1431 8.8738c7.0262 3.6191 5.81-7.6507-0.2815-2.8204-4.7637 3.7773-4.3154 9.4373-4.3154 9.4373l-5.7076-7.2528z"/>
    <path d="m314.25 831.92s-6.0899 0.73845-8.8738 6.1431c-3.6191 7.0262 7.6507 5.81 2.8204-0.28151-3.7773-4.7636-9.4373-4.3154-9.4373-4.3154l7.2528-5.7076z"/>
    <path d="m343.6 683.99s4.8284 3.784 10.619 1.9308c7.5273-2.4092-1.3016-9.5182-2.1934-1.7953-0.69743 6.0394 3.6217 9.7247 3.6217 9.7247l-9.1644-1.0927z"/>
    <path d="m366.17 797.19s-3.784 4.8284-1.9308 10.619c2.4092 7.5273 9.5182-1.3015 1.7953-2.1934-6.0394-0.69742-9.7247 3.6217-9.7247 3.6217l1.0927-9.1644z"/>
    <path d="m252.98 819.76s-4.8284-3.784-10.619-1.9308c-7.5273 2.4092 1.3016 9.5182 2.1934 1.7953 0.69742-6.0394-3.6217-9.7247-3.6217-9.7247l9.1644 1.0927z"/>
    <path d="m230.4 706.57s3.784-4.8284 1.9308-10.619c-2.4092-7.5273-9.5182 1.3016-1.7953 2.1934 6.0394 0.69743 9.7247-3.6217 9.7247-3.6217l-1.0927 9.1644z"/>
    <path d="m262.15 678.7s5.6912-2.2894 6.9814-8.2305c1.6772-7.7235-8.8937-3.6319-2.6514 1.0019 4.8816 3.6237 10.233 1.7259 10.233 1.7259l-5.5284 7.3902z"/>
    <path d="m371.47 715.74s2.2894 5.6913 8.2305 6.9814c7.7235 1.6772 3.6319-8.8937-1.0019-2.6514-3.6237 4.8816-1.7259 10.233-1.7259 10.233l-7.3902-5.5284z"/>
    <path d="m334.42 825.06s-5.6912 2.2894-6.9814 8.2305c-1.6772 7.7235 8.8937 3.6319 2.6514-1.0019-4.8816-3.6237-10.233-1.7259-10.233-1.7259l5.5284-7.3902z"/>
    <path d="m225.1 788.01s-2.2895-5.6913-8.2305-6.9814c-7.7235-1.6772-3.6319 8.8937 1.0019 2.6514 3.6237-4.8816 1.7259-10.233 1.7259-10.233l7.3902 5.5284z"/>
    <path d="m216.84 746.58s0.8629-6.0735-3.6371-10.161c-5.8501-5.3143-7.5922 5.8862-0.45805 2.7971 5.579-2.4157 6.6109-7.9988 6.6109-7.9988l3.6359 8.4829z"/>
    <path d="m303.58 670.43s6.0735 0.8629 10.161-3.6371c5.3143-5.8501-5.8862-7.5922-2.7971-0.45804 2.4157 5.579 7.9988 6.6109 7.9988 6.6109l-8.4829 3.6359z"/>
    <path d="m379.73 757.17s-0.8629 6.0735 3.6371 10.161c5.8501 5.3143 7.5922-5.8862 0.45805-2.7971-5.579 2.4157-6.6109 7.9988-6.6109 7.9988l-3.6359-8.4829z"/>
    <path d="m292.99 833.32s-6.0735-0.86289-10.161 3.6371c-5.3143 5.8501 5.8862 7.5922 2.7971 0.45805-2.4157-5.579-7.9988-6.6109-7.9988-6.6109l8.4829-3.6359z"/>
   </g>
   <circle cx="298.4" cy="752.62" r="187.21" fill="none" stroke="#000" stroke-linecap="round" stroke-linejoin="round" stroke-width="4.0339"/>
   <g fill="none" stroke="#000" stroke-linecap="round" stroke-linejoin="round" stroke-width="1.5326">
    <path d="m304.98 562.19s-3.0148-4.922-6.7337-4.922-6.7337 4.922-6.7337 4.922l6.7337-18.389z"/>
    <path d="m487.9 758.58s4.922-3.0148 4.922-6.7337-4.922-6.7337-4.922-6.7337l18.389 6.7337z"/>
    <path d="m291.51 941.5s3.0148 4.922 6.7337 4.922 6.7337-4.922 6.7337-4.922l-6.7337 18.389z"/>
    <path d="m108.59 745.11s-4.922 3.0148-4.922 6.7337 4.922 6.7337 4.922 6.7337l-18.389-6.7337z"/>
    <path d="m137.37 651.19s-5.77 0.14987-7.6295 3.3706c-1.8595 3.2207 0.89574 8.2926 0.89574 8.2926l-12.559-15.026z"/>
    <path d="m398.9 590.97s-0.14987-5.77-3.3706-7.6295c-3.2207-1.8595-8.2926 0.89574-8.2926 0.89574l15.026-12.559z"/>
    <path d="m459.12 852.5s5.77-0.14987 7.6295-3.3706c1.8595-3.2207-0.89574-8.2926-0.89574-8.2926l12.559 15.026z"/>
    <path d="m197.59 912.72s0.14987 5.77 3.3706 7.6295c3.2207 1.8595 8.2926-0.89574 8.2926-0.89574l-15.026 12.559z"/>
    <path d="m209.25 584.23s-5.0719-2.7552-8.2926-0.89575c-3.2207 1.8595-3.3706 7.6295-3.3706 7.6295l-3.3632-19.293z"/>
    <path d="m465.86 662.85s2.7552-5.0719 0.89575-8.2926c-1.8595-3.2207-7.6295-3.3706-7.6295-3.3706l19.293-3.3632z"/>
    <path d="m387.24 919.46s5.0719 2.7552 8.2926 0.89575c3.2207-1.8595 3.3706-7.6295 3.3706-7.6295l3.3632 19.293z"/>
    <path d="m130.63 840.84s-2.7552 5.0719-0.89575 8.2926c1.8595 3.2207 7.6295 3.3706 7.6295 3.3706l-19.293 3.3632z"/>
    <path d="m113.31 794.43s-3.974 4.186-3.0115 7.7782c0.96253 3.5922 6.4971 5.2304 6.4971 5.2304l-19.506-1.7447z"/>
    <path d="m255.66 566.91s-4.186-3.974-7.7782-3.0115c-3.5922 0.96253-5.2304 6.4971-5.2304 6.4971l1.7447-19.506z"/>
    <path d="m483.18 709.26s3.974-4.186 3.0115-7.7782c-0.96253-3.5922-6.4971-5.2304-6.4971-5.2304l19.506 1.7447z"/>
    <path d="m340.83 936.78s4.186 3.974 7.7782 3.0115c3.5922-0.96253 5.2304-6.4971 5.2304-6.4971l-1.7447 19.506z"/>
    <path d="m116.79 696.26s-5.5346 1.6382-6.4971 5.2304c-0.96253 3.5922 3.0115 7.7782 3.0115 7.7782l-16.02-11.264z"/>
    <path d="m353.83 570.4s-1.6382-5.5346-5.2304-6.4971c-3.5922-0.96253-7.7782 3.0115-7.7782 3.0115l11.264-16.02z"/>
    <path d="m479.69 807.44s5.5346-1.6382 6.4971-5.2304c0.96253-3.5922-3.0115-7.7782-3.0115-7.7782l16.02 11.264z"/>
    <path d="m242.65 933.29s1.6382 5.5346 5.2304 6.4971c3.5922 0.96253 7.7782-3.0115 7.7782-3.0115l-11.264 16.02z"/>
    <path d="m168.9 612.98s-5.6122-1.3486-8.2418 1.281c-2.6297 2.6297-1.2811 8.2419-1.2811 8.2419l-8.2419-17.765z"/>
    <path d="m437.11 622.5s1.3486-5.6122-1.281-8.2418c-2.6297-2.6297-8.2419-1.2811-8.2419-1.2811l17.765-8.2419z"/>
    <path d="m427.59 890.71s5.6122 1.3486 8.2418-1.281c2.6297-2.6297 1.2811-8.2419 1.2811-8.2419l8.2419 17.765z"/>
    <path d="m159.38 881.19s-1.3486 5.6122 1.281 8.2418c2.6297 2.6297 8.2419 1.2811 8.2419 1.2811l-17.765 8.2419z"/>
   </g>
   <g transform="matrix(.92388 .38268 -.38268 .92388 310.42 -56.902)" fill="none" stroke="#000" stroke-linecap="round" stroke-linejoin="round" stroke-width="1.5326">
    <path d="m304.98 562.19s-3.0148-4.922-6.7337-4.922-6.7337 4.922-6.7337 4.922l6.7337-18.389z"/>
    <path d="m487.9 758.58s4.922-3.0148 4.922-6.7337-4.922-6.7337-4.922-6.7337l18.389 6.7337z"/>
    <path d="m291.51 941.5s3.0148 4.922 6.7337 4.922 6.7337-4.922 6.7337-4.922l-6.7337 18.389z"/>
    <path d="m108.59 745.11s-4.922 3.0148-4.922 6.7337 4.922 6.7337 4.922 6.7337l-18.389-6.7337z"/>
    <path d="m137.37 651.19s-5.77 0.14987-7.6295 3.3706c-1.8595 3.2207 0.89574 8.2926 0.89574 8.2926l-12.559-15.026z"/>
    <path d="m398.9 590.97s-0.14987-5.77-3.3706-7.6295c-3.2207-1.8595-8.2926 0.89574-8.2926 0.89574l15.026-12.559z"/>
    <path d="m459.12 852.5s5.77-0.14987 7.6295-3.3706c1.8595-3.2207-0.89574-8.2926-0.89574-8.2926l12.559 15.026z"/>
    <path d="m197.59 912.72s0.14987 5.77 3.3706 7.6295c3.2207 1.8595 8.2926-0.89574 8.2926-0.89574l-15.026 12.559z"/>
    <path d="m209.25 584.23s-5.0719-2.7552-8.2926-0.89575c-3.2207 1.8595-3.3706 7.6295-3.3706 7.6295l-3.3632-19.293z"/>
    <path d="m465.86 662.85s2.7552-5.0719 0.89575-8.2926c-1.8595-3.2207-7.6295-3.3706-7.6295-3.3706l19.293-3.3632z"/>
    <path d="m387.24 919.46s5.0719 2.7552 8.2926 0.89575c3.2207-1.8595 3.3706-7.6295 3.3706-7.6295l3.3632 19.293z"/>
    <path d="m130.63 840.84s-2.7552 5.0719-0.89575 8.2926c1.8595 3.2207 7.6295 3.3706 7.6295 3.3706l-19.293 3.3632z"/>
    <path d="m113.31 794.43s-3.974 4.186-3.0115 7.7782c0.96253 3.5922 6.4971 5.2304 6.4971 5.2304l-19.506-1.7447z"/>
    <path d="m255.66 566.91s-4.186-3.974-7.7782-3.0115c-3.5922 0.96253-5.2304 6.4971-5.2304 6.4971l1.7447-19.506z"/>
    <path d="m483.18 709.26s3.974-4.186 3.0115-7.7782c-0.96253-3.5922-6.4971-5.2304-6.4971-5.2304l19.506 1.7447z"/>
    <path d="m340.83 936.78s4.186 3.974 7.7782 3.0115c3.5922-0.96253 5.2304-6.4971 5.2304-6.4971l-1.7447 19.506z"/>
    <path d="m116.79 696.26s-5.5346 1.6382-6.4971 5.2304c-0.96253 3.5922 3.0115 7.7782 3.0115 7.7782l-16.02-11.264z"/>
    <path d="m353.83 570.4s-1.6382-5.5346-5.2304-6.4971c-3.5922-0.96253-7.7782 3.0115-7.7782 3.0115l11.264-16.02z"/>
    <path d="m479.69 807.44s5.5346-1.6382 6.4971-5.2304c0.96253-3.5922-3.0115-7.7782-3.0115-7.7782l16.02 11.264z"/>
    <path d="m242.65 933.29s1.6382 5.5346 5.2304 6.4971c3.5922 0.96253 7.7782-3.0115 7.7782-3.0115l-11.264 16.02z"/>
    <path d="m168.9 612.98s-5.6122-1.3486-8.2418 1.281c-2.6297 2.6297-1.2811 8.2419-1.2811 8.2419l-8.2419-17.765z"/>
    <path d="m437.11 622.5s1.3486-5.6122-1.281-8.2418c-2.6297-2.6297-8.2419-1.2811-8.2419-1.2811l17.765-8.2419z"/>
    <path d="m427.59 890.71s5.6122 1.3486 8.2418-1.281c2.6297-2.6297 1.2811-8.2419 1.2811-8.2419l8.2419 17.765z"/>
    <path d="m159.38 881.19s-1.3486 5.6122 1.281 8.2418c2.6297 2.6297 8.2419 1.2811 8.2419 1.2811l-17.765 8.2419z"/>
   </g>
   <path d="m339.44 651.49c-0.19439-0.10014-0.0587-1.4665 1.0109-3.4637 0.39955-0.74039 0.98475-1.5607 1.8157-2.2992 2.1116-1.8548 4.442-2.8858 7.4605-4.2793 0.16231-0.0749 0.32273-0.1494 0.48171-0.22391 1.7511-0.84645 3.1683-1.6286 4.3076-2.6757 0.7998-0.74073 1.3582-1.4941 1.6335-2.2831 1.1126-2.6022-0.51209-4.6368 0.6396-4.758-0.26596 0.028 1.8018 1.6275 1.1945 5.2462-0.25477 1.2014-0.88803 2.3912-1.8696 3.4113-1.3204 1.384-2.9622 2.428-4.8268 3.3126-0.16626 0.0812-0.33337 0.16125-0.50141 0.24045-3.2898 1.5506-5.0953 2.0976-7.2533 3.6085-0.69848 0.47286-1.2769 1.0583-1.7344 1.6007-1.3383 1.5933-2.0006 2.7474-2.3584 2.5631z"/>
   <path d="m398.64 793.09c0.10014-0.19439 1.4665-0.0587 3.4637 1.0109 0.74039 0.39955 1.5607 0.98475 2.2992 1.8157 1.8548 2.1116 2.8858 4.442 4.2793 7.4605 0.0749 0.16231 0.1494 0.32273 0.22391 0.48171 0.84645 1.7511 1.6286 3.1683 2.6757 4.3076 0.74073 0.7998 1.4941 1.3582 2.2831 1.6335 2.6022 1.1126 4.6368-0.51209 4.758 0.6396-0.028-0.26596-1.6275 1.8018-5.2462 1.1945-1.2014-0.25477-2.3912-0.88803-3.4113-1.8696-1.384-1.3204-2.428-2.9622-3.3126-4.8268-0.0812-0.16626-0.16125-0.33337-0.24045-0.50141-1.5506-3.2898-2.0976-5.0953-3.6085-7.2533-0.47286-0.69848-1.0583-1.2769-1.6007-1.7344-1.5933-1.3383-2.7474-2.0006-2.5631-2.3584z"/>
   <path d="m257.05 852.29c0.19439 0.10014 0.0587 1.4665-1.0109 3.4637-0.39955 0.74039-0.98475 1.5607-1.8157 2.2992-2.1116 1.8548-4.442 2.8858-7.4605 4.2793-0.16231 0.0749-0.32273 0.1494-0.48171 0.22391-1.7511 0.84645-3.1683 1.6286-4.3076 2.6757-0.7998 0.74073-1.3582 1.4941-1.6335 2.2831-1.1126 2.6022 0.51209 4.6368-0.6396 4.758 0.26596-0.028-1.8018-1.6275-1.1945-5.2462 0.25477-1.2014 0.88803-2.3912 1.8696-3.4113 1.3204-1.384 2.9622-2.428 4.8268-3.3126 0.16626-0.0812 0.33337-0.16125 0.50141-0.24045 3.2898-1.5506 5.0953-2.0976 7.2533-3.6085 0.69848-0.47286 1.2769-1.0583 1.7344-1.6007 1.3383-1.5933 2.0006-2.7474 2.3584-2.5631z"/>
   <path d="m197.85 710.69c-0.10014 0.19439-1.4665 0.0587-3.4637-1.0109-0.74039-0.39955-1.5607-0.98475-2.2992-1.8157-1.8548-2.1116-2.8858-4.442-4.2793-7.4605-0.0749-0.16231-0.1494-0.32273-0.22391-0.48171-0.84645-1.7511-1.6286-3.1683-2.6757-4.3076-0.74073-0.7998-1.4941-1.3582-2.2831-1.6335-2.6022-1.1126-4.6368 0.51209-4.758-0.6396 0.028 0.26596 1.6275-1.8018 5.2462-1.1945 1.2014 0.25477 2.3912 0.88803 3.4113 1.8696 1.384 1.3204 2.428 2.9622 3.3126 4.8268 0.0812 0.16626 0.16125 0.33337 0.24045 0.50141 1.5506 3.2898 2.0976 5.0953 3.6085 7.2533 0.47286 0.69848 1.0583 1.2769 1.6007 1.7344 1.5933 1.3383 2.7474 2.0006 2.5631 2.3584z"/>
   <path d="m256.38 651.77c-0.20826 0.0666-1.0785-0.99547-1.7344-3.164-0.24101-0.80606-0.40727-1.7999-0.34193-2.9097 0.18158-2.8047 1.1004-5.1816 2.2494-8.3014 0.0618-0.16776 0.12256-0.33385 0.18228-0.49895 0.63971-1.8368 1.0887-3.3919 1.154-4.9379 0.0418-1.0893-0.0961-2.0169-0.45929-2.7694h-1e-5c-1.0533-2.6268-3.6408-2.9166-2.9122-3.8167-0.16827 0.20786 2.4249-0.12329 4.5542 2.865 0.66936 1.0297 1.0629 2.3188 1.0901 3.7342 0.045 1.9123-0.37774 3.8115-1.0707 5.7554-0.0602 0.17498-0.12172 0.34975-0.18453 0.52457-1.2298 3.4228-2.1197 5.0862-2.5773 7.6805-0.15954 0.82826-0.15459 1.6512-0.0945 2.3583 0.18034 2.0729 0.52808 3.3573 0.14472 3.48z"/>
   <path d="m398.37 710.03c-0.0666-0.20826 0.99547-1.0785 3.164-1.7344 0.80606-0.24101 1.7999-0.40727 2.9097-0.34193 2.8047 0.18158 5.1816 1.1004 8.3014 2.2494 0.16776 0.0618 0.33385 0.12256 0.49895 0.18228 1.8368 0.63971 3.3919 1.0887 4.9379 1.154 1.0893 0.0418 2.0169-0.0961 2.7694-0.45929v-1e-5c2.6268-1.0533 2.9166-3.6408 3.8167-2.9122-0.20786-0.16827 0.12329 2.4249-2.865 4.5542-1.0297 0.66936-2.3188 1.0629-3.7342 1.0901-1.9123 0.045-3.8115-0.37774-5.7554-1.0707-0.17498-0.0602-0.34975-0.12172-0.52457-0.18453-3.4228-1.2298-5.0862-2.1197-7.6805-2.5773-0.82826-0.15954-1.6512-0.15459-2.3583-0.0945-2.0729 0.18034-3.3573 0.52808-3.48 0.14472z"/>
   <path d="m340.11 852.01c0.20826-0.0666 1.0785 0.99547 1.7344 3.164 0.24101 0.80606 0.40727 1.7999 0.34193 2.9097-0.18158 2.8047-1.1004 5.1816-2.2494 8.3014-0.0618 0.16776-0.12256 0.33385-0.18228 0.49895-0.63971 1.8368-1.0887 3.3919-1.154 4.9379-0.0418 1.0893 0.0961 2.0169 0.45929 2.7694h1e-5c1.0533 2.6268 3.6408 2.9166 2.9122 3.8167 0.16827-0.20786-2.4249 0.12329-4.5542-2.865-0.66936-1.0297-1.0629-2.3188-1.0901-3.7342-0.045-1.9123 0.37774-3.8115 1.0707-5.7554 0.0602-0.17498 0.12172-0.34975 0.18453-0.52457 1.2298-3.4228 2.1197-5.0862 2.5773-7.6805 0.15954-0.82826 0.15459-1.6512 0.0945-2.3583-0.18034-2.0729-0.52808-3.3573-0.14472-3.48z"/>
   <path d="m198.12 793.75c0.0666 0.20826-0.99547 1.0785-3.164 1.7344-0.80606 0.24101-1.7999 0.40727-2.9097 0.34193-2.8047-0.18158-5.1816-1.1004-8.3014-2.2494-0.16776-0.0618-0.33385-0.12256-0.49895-0.18228-1.8368-0.63971-3.3919-1.0887-4.9379-1.154-1.0893-0.0418-2.0169 0.0961-2.7694 0.45929v1e-5c-2.6268 1.0533-2.9166 3.6408-3.8167 2.9122 0.20786 0.16827-0.12329-2.4249 2.865-4.5542 1.0297-0.66936 2.3188-1.0629 3.7342-1.0901 1.9123-0.045 3.8115 0.37774 5.7554 1.0707 0.17498 0.0602 0.34975 0.12172 0.52457 0.18453 3.4228 1.2298 5.0862 2.1197 7.6805 2.5773 0.82826 0.15954 1.6512 0.15459 2.3583 0.0945 2.0729-0.18034 3.3573-0.52808 3.48-0.14472z"/>
   <path d="m297.89 643.37c-0.21791-0.0181-0.61545-1.3324-0.39157-3.5869 0.0858-0.83692 0.31254-1.8188 0.79759-2.819 1.2411-2.5217 2.9995-4.366 5.255-6.8086 0.12128-0.13134 0.24099-0.26153 0.35935-0.3912 1.2939-1.4522 2.3039-2.7171 2.9558-4.1205 0.45545-0.99041 0.68306-1.9002 0.63549-2.7344 0.0321-2.8299-2.2475-4.0879-1.2299-4.6406-0.235 0.12764 2.2875 0.81405 3.1112 4.3897 0.22437 1.2074 0.0946 2.549-0.42186 3.8671-0.69025 1.784-1.8076 3.3768-3.1917 4.9076-0.12253 0.13865-0.24629 0.27655-0.37122 0.41403-2.446 2.6916-3.9048 3.8879-5.3203 6.1096-0.46435 0.70416-0.77472 1.4664-0.98979 2.1426-0.62667 1.9841-0.79692 3.3039-1.198 3.2705z"/>
   <path d="m406.77 751.53c0.0181-0.21791 1.3324-0.61545 3.5869-0.39157 0.83692 0.0858 1.8188 0.31254 2.819 0.79759 2.5217 1.2411 4.366 2.9995 6.8086 5.255 0.13134 0.12128 0.26153 0.24099 0.3912 0.35935 1.4522 1.2939 2.7171 2.3039 4.1205 2.9558 0.99041 0.45545 1.9002 0.68306 2.7344 0.63549 2.8299 0.0321 4.0879-2.2475 4.6406-1.2299-0.12764-0.235-0.81405 2.2875-4.3897 3.1112-1.2074 0.22437-2.549 0.0946-3.8671-0.42186-1.784-0.69025-3.3768-1.8076-4.9076-3.1917-0.13865-0.12253-0.27655-0.24629-0.41403-0.37122-2.6916-2.446-3.8879-3.9048-6.1096-5.3203-0.70416-0.46435-1.4664-0.77472-2.1426-0.98979-1.9841-0.62667-3.3039-0.79692-3.2705-1.198z"/>
   <path d="m298.6 860.41c0.21791 0.0181 0.61545 1.3324 0.39157 3.5869-0.0858 0.83692-0.31254 1.8188-0.79759 2.819-1.2411 2.5217-2.9995 4.366-5.255 6.8086-0.12128 0.13134-0.24099 0.26153-0.35935 0.3912-1.2939 1.4522-2.3039 2.7171-2.9558 4.1205-0.45545 0.99041-0.68306 1.9002-0.63549 2.7344-0.0321 2.8299 2.2475 4.0879 1.2299 4.6406 0.235-0.12764-2.2875-0.81405-3.1112-4.3897-0.22437-1.2074-0.0946-2.549 0.42186-3.8671 0.69025-1.784 1.8076-3.3768 3.1917-4.9076 0.12253-0.13865 0.24629-0.27655 0.37122-0.41403 2.446-2.6916 3.9048-3.8879 5.3203-6.1096 0.46435-0.70416 0.77472-1.4664 0.98979-2.1426 0.62667-1.9841 0.79692-3.3039 1.198-3.2705z"/>
   <path d="m189.72 752.25c-0.0181 0.21791-1.3324 0.61545-3.5869 0.39157-0.83692-0.0858-1.8188-0.31254-2.819-0.79759-2.5217-1.2411-4.366-2.9995-6.8086-5.255-0.13134-0.12128-0.26153-0.24099-0.3912-0.35935-1.4522-1.2939-2.7171-2.3039-4.1205-2.9558-0.99041-0.45545-1.9002-0.68306-2.7344-0.63549-2.8299-0.0321-4.0879 2.2475-4.6406 1.2299 0.12764 0.235 0.81405-2.2875 4.3897-3.1112 1.2074-0.22437 2.549-0.0946 3.8671 0.42186 1.784 0.69025 3.3768 1.8076 4.9076 3.1917 0.13865 0.12253 0.27655 0.24629 0.41403 0.37122 2.6916 2.446 3.8879 3.9048 6.1096 5.3203 0.70416 0.46435 1.4664 0.77472 2.1426 0.98979 1.9841 0.62667 3.3039 0.79692 3.2705 1.198z"/>
   <path d="m374.73 674.9c-0.14127-0.16691 0.50697-1.3774 2.2594-2.8132 0.65246-0.53112 1.507-1.065 2.5573-1.4294 2.6606-0.90553 5.2082-0.9663 8.5303-1.0986 0.17864-7e-3 0.35534-0.0145 0.53073-0.0225 1.9418-0.11188 3.5504-0.29221 5.0037-0.82356 1.0224-0.37827 1.8266-0.8606 2.3829-1.4842 2.0237-1.9784 1.3013-4.4798 2.4117-4.1511-0.25643-0.0759 1.0419 2.1931-0.90405 5.3039-0.69513 1.0124-1.7355 1.8694-3.0328 2.4362-1.7495 0.77336-3.6659 1.1096-5.7271 1.2134-0.18469 0.0114-0.36972 0.0214-0.55527 0.0303-3.6328 0.17365-5.5102-0.0119-8.0822 0.55812-0.82626 0.16957-1.5847 0.48907-2.215 0.81517-1.8461 0.95987-2.8997 1.7727-3.1597 1.4654z"/>
   <path d="m375.23 828.37c0.16691-0.14127 1.3774 0.50697 2.8132 2.2594 0.53112 0.65246 1.065 1.507 1.4294 2.5573 0.90553 2.6606 0.9663 5.2082 1.0986 8.5303 7e-3 0.17864 0.0145 0.35534 0.0225 0.53073 0.11188 1.9418 0.29221 3.5504 0.82356 5.0037 0.37827 1.0224 0.8606 1.8266 1.4842 2.3829 1.9784 2.0237 4.4798 1.3013 4.1511 2.4117 0.0759-0.25643-2.1931 1.0419-5.3039-0.90405-1.0124-0.69513-1.8694-1.7355-2.4362-3.0328-0.77336-1.7495-1.1096-3.6659-1.2134-5.7271-0.0114-0.18469-0.0214-0.36972-0.0303-0.55527-0.17365-3.6328 0.0119-5.5102-0.55812-8.0822-0.16957-0.82626-0.48907-1.5847-0.81517-2.215-0.95987-1.8461-1.7727-2.8997-1.4654-3.1597z"/>
   <path d="m221.76 828.88c0.14127 0.16691-0.50697 1.3774-2.2594 2.8132-0.65246 0.53112-1.507 1.065-2.5573 1.4294-2.6606 0.90553-5.2082 0.9663-8.5303 1.0986-0.17864 7e-3 -0.35534 0.0145-0.53073 0.0225-1.9418 0.11188-3.5504 0.29221-5.0037 0.82356-1.0224 0.37827-1.8266 0.8606-2.3829 1.4842-2.0237 1.9784-1.3013 4.4798-2.4117 4.1511 0.25643 0.0759-1.0419-2.1931 0.90405-5.3039 0.69513-1.0124 1.7355-1.8694 3.0328-2.4362 1.7495-0.77336 3.6659-1.1096 5.7271-1.2134 0.18469-0.0114 0.36972-0.0214 0.55527-0.0303 3.6328-0.17365 5.5102 0.0119 8.0822-0.55812 0.82626-0.16957 1.5847-0.48907 2.215-0.81517 1.8461-0.95987 2.8997-1.7727 3.1597-1.4654z"/>
   <path d="m221.25 675.41c-0.16691 0.14127-1.3774-0.50697-2.8132-2.2594-0.53112-0.65246-1.065-1.507-1.4294-2.5573-0.90553-2.6606-0.9663-5.2082-1.0986-8.5303-7e-3 -0.17864-0.0145-0.35534-0.0225-0.53073-0.11188-1.9418-0.29221-3.5504-0.82356-5.0037-0.37827-1.0224-0.8606-1.8266-1.4842-2.3829-1.9784-2.0237-4.4798-1.3013-4.1511-2.4117-0.0759 0.25643 2.1931-1.0419 5.3039 0.90405 1.0124 0.69513 1.8694 1.7355 2.4362 3.0328 0.77336 1.7495 1.1096 3.6659 1.2134 5.7271 0.0114 0.18469 0.0214 0.36972 0.0303 0.55527 0.17365 3.6328-0.0119 5.5102 0.55812 8.0822 0.16957 0.82626 0.48907 1.5847 0.81517 2.215 0.95987 1.8461 1.7727 2.8997 1.4654 3.1597z"/>
  </g>
 </g>
</svg>
