<?xml version="1.0" encoding="UTF-8" standalone="no"?>
<!-- Created with Inkscape (http://www.inkscape.org/) -->

<svg
   xmlns:dc="http://purl.org/dc/elements/1.1/"
   xmlns:cc="http://creativecommons.org/ns#"
   xmlns:rdf="http://www.w3.org/1999/02/22-rdf-syntax-ns#"
   xmlns:svg="http://www.w3.org/2000/svg"
   xmlns="http://www.w3.org/2000/svg"
   xmlns:sodipodi="http://sodipodi.sourceforge.net/DTD/sodipodi-0.dtd"
   xmlns:inkscape="http://www.inkscape.org/namespaces/inkscape"
   width="160"
   height="160"
   viewBox="0 0 42.333332 42.333335"
   version="1.1"
   id="svg3729"
   inkscape:version="0.92.3 (2405546, 2018-03-11)"
   sodipodi:docname="logo-pj-160by160.svg">
  <defs
     id="defs3723" />
  <sodipodi:namedview
     id="base"
     pagecolor="#ffffff"
     bordercolor="#666666"
     borderopacity="1.0"
     inkscape:pageopacity="0.0"
     inkscape:pageshadow="2"
     inkscape:zoom="0.5"
     inkscape:cx="59"
     inkscape:cy="0"
     inkscape:document-units="mm"
     inkscape:current-layer="layer1"
     showgrid="false"
     units="px"
     inkscape:window-width="1680"
     inkscape:window-height="988"
     inkscape:window-x="-8"
     inkscape:window-y="-8"
     inkscape:window-maximized="1" />
  <metadata
     id="metadata3726">
    <rdf:RDF>
      <cc:Work
         rdf:about="">
        <dc:format>image/svg+xml</dc:format>
        <dc:type
           rdf:resource="http://purl.org/dc/dcmitype/StillImage" />
        <dc:title></dc:title>
      </cc:Work>
    </rdf:RDF>
  </metadata>
  <g
     inkscape:label="Camada 1"
     inkscape:groupmode="layer"
     id="layer1"
     transform="translate(0,-254.66665)">
    <path
       inkscape:connector-curvature="0"
       d="m 21.705513,258.18966 c 1.020081,2.12371 2.510668,7.38277 3.111253,11.46249 0.959103,6.51044 -0.773968,9.32512 -3.083271,14.02281 -0.664821,-0.96576 -2.522287,-4.26101 -3.332327,-8.02481 -1.590029,-7.40122 1.040133,-10.68154 3.304345,-17.46049 z M 10.275816,279.67388 6.601567,269.29542 c 1.8506542,1.18775 9.889587,8.81844 10.720583,11.05846 -2.057589,-0.74141 -4.211199,-0.95231 -7.046334,-0.68 z m 6.325202,-3.65499 C 15.661543,274.35537 9.0708904,266.44622 1.9668393,265.45901 l 0.5879561,0.71985 c 3.6283314,3.94509 4.8351163,8.80108 6.7900611,13.67721 -3.6762929,0.60495 -7.8900342,3.10583 -7.8900342,7.48167 0,1.47479 1.1031559,2.89004 2.6445116,2.89004 h 0.4809852 c 0.5814804,0 1.8756338,-0.66079 1.8756338,-1.29638 -3.5921539,0.75515 -4.0879382,-1.75041 -2.811981,-4.35802 1.4294241,-2.91793 4.5338051,-3.54769 6.0142358,-3.83587 1.0542973,4.63322 5.5588743,7.87217 10.0218593,6.68044 -2.460962,-0.68127 -7.406338,-1.15054 -9.160497,-6.86461 4.742045,0 10.531597,2.40653 10.859672,6.35319 1.04488,-1.41743 2.544964,-5.03826 5.471291,-5.68923 0.169753,0.46842 0.432925,2.63595 0.799059,4.89319 0.32833,2.02467 0.941174,4.81955 -0.184371,6.70325 -0.4186,0.70088 -0.602358,1.43708 -2.073714,2.16486 -2.758778,1.3648 -3.767239,1.49926 -3.320711,1.49195 0.267715,-10e-4 0.968758,-0.0318 2.437094,-0.40421 6.617679,-1.73033 4.413546,-8.83577 3.930839,-15.30993 4.332623,0.0249 8.841788,1.87471 10.807206,4.14698 1.789781,2.06928 1.449426,4.6201 -2.617561,3.97887 3.37482,4.87455 8.596947,-2.85113 2.489293,-6.87882 -3.656158,-2.4109 -6.542621,-2.60961 -10.79803,-2.61735 -0.379928,-6.37732 3.128199,-11.35507 10.29832,-14.74695 -0.725003,1.55383 -1.080187,4.45311 -1.493134,6.02185 -0.977352,3.71099 -3.041653,6.61295 -5.322734,7.80758 4.786898,0.47479 5.893846,-4.249 6.853185,-8.95604 0.549575,-2.69624 1.36264,-5.21896 2.000698,-7.18404 -4.743663,2.33239 -10.841476,4.97011 -13.726905,11.18563 0.263365,-6.44603 -3.523538,-13.32017 -5.463094,-19.37664 -0.0626,0.49388 -0.22306,0.87886 -0.412128,1.34126 -3.232386,7.87927 -7.045273,10.81832 -4.452909,20.54027 z m 9.974968,3.79801 c -0.428358,0.16103 -1.871046,1.12729 -2.085759,1.54063 0.54695,-0.70395 1.608383,-3.68078 1.851896,-4.84083 0.05857,-0.28116 0.233953,2.83498 0.233953,3.3002 z"
       style="fill:#8a3a3a;fill-opacity:1;fill-rule:evenodd;stroke-width:1.6371069"
       id="path3688" />
  </g>
</svg>
