<?xml version="1.0" encoding="UTF-8" standalone="no"?>
<svg
   xmlns:dc="http://purl.org/dc/elements/1.1/"
   xmlns:cc="http://creativecommons.org/ns#"
   xmlns:rdf="http://www.w3.org/1999/02/22-rdf-syntax-ns#"
   xmlns:svg="http://www.w3.org/2000/svg"
   xmlns="http://www.w3.org/2000/svg"
   xmlns:sodipodi="http://sodipodi.sourceforge.net/DTD/sodipodi-0.dtd"
   xmlns:inkscape="http://www.inkscape.org/namespaces/inkscape"
   id="svg3706"
   version="1.1"
   viewBox="0 0 17.215555 16.933333"
   height="60"
   width="61"
   inkscape:version="0.91 r13725"
   sodipodi:docname="logo-pj.svg">
  <sodipodi:namedview
     pagecolor="#ffffff"
     bordercolor="#666666"
     borderopacity="1"
     objecttolerance="10"
     gridtolerance="10"
     guidetolerance="10"
     inkscape:pageopacity="0"
     inkscape:pageshadow="2"
     inkscape:window-width="723"
     inkscape:window-height="480"
     id="namedview3360"
     showgrid="false"
     inkscape:zoom="1"
     inkscape:cx="62.007874"
     inkscape:cy="93.846418"
     inkscape:window-x="854"
     inkscape:window-y="284"
     inkscape:window-maximized="0"
     inkscape:current-layer="svg3706"
     units="px" />
  <defs
     id="defs3700" />
  <metadata
     id="metadata3703">
    <rdf:RDF>
      <cc:Work
         rdf:about="">
        <dc:format>image/svg+xml</dc:format>
        <dc:type
           rdf:resource="http://purl.org/dc/dcmitype/StillImage" />
        <dc:title></dc:title>
      </cc:Work>
    </rdf:RDF>
  </metadata>
  <path
     inkscape:connector-curvature="0"
     d="m 9.0238408,1.4715966 c 0.410229,0.8540601 1.0096732,2.9690151 1.2511962,4.6097001 0.385705,2.6181899 -0.3112452,3.7501192 -1.2399402,5.6393093 -0.267362,-0.38837 -1.014347,-1.71357 -1.340108,-3.2271894 -0.639439,-2.9764399 0.418295,-4.2956199 1.328852,-7.02182 z M 4.4273448,10.111551 2.9497378,5.9378267 c 0.744252,0.47764 3.977134,3.5463592 4.311322,4.4471793 -0.827471,-0.298145 -1.693554,-0.38294 -2.833715,-0.273455 z M 6.9710478,8.6416916 C 6.5932428,7.9727066 3.9427868,4.7920067 1.0858652,4.3949917 l 0.2364535,0.289505 c 1.4591411,1.586535 1.9444561,3.5393949 2.7306461,5.5003343 -1.478431,0.24327 -3.17300552,1.24902 -3.17300552,3.00877 0,0.593089 0.44364162,1.162249 1.06349552,1.162249 l 0.193429,0 c 0.233852,0 0.754291,-0.26574 0.754291,-0.521335 -1.4445896,0.30368 -1.6439766,-0.703949 -1.130845,-1.752604 0.574854,-1.17347 1.823285,-1.426715 2.418647,-1.54262 0.423988,1.86327 2.235521,3.165824 4.03033,2.686575 -0.989692,-0.273985 -2.97849,-0.4627 -3.683931,-2.76065 1.907029,0 4.235314,0.96781 4.367251,2.554975 0.420204,-0.57002 1.023466,-2.026165 2.2003012,-2.287935 0.06831,0.18843 0.174104,1.060045 0.321348,1.96781 0.132037,0.814224 0.378496,1.938199 -0.0741,2.695739 -0.168346,0.281855 -0.242247,0.57792 -0.833954,0.8706 -1.1094512,0.54885 -1.5150062,0.60293 -1.3354362,0.6 0.10767,-5e-4 0.38959,-0.01255 0.9800802,-0.16261 2.661322,-0.695845 1.774929,-3.553314 1.580808,-6.156929 1.742373,0.0112 3.555749,0.753915 4.346153,1.667705 0.71976,0.832185 0.582884,1.857989 -1.052666,1.600109 1.357193,1.960325 3.457289,-1.146584 1.001081,-2.766334 -1.470333,-0.969535 -2.631135,-1.0494451 -4.342464,-1.0525651 -0.152775,-2.5646742 1.25801,-4.5664792 4.141498,-5.9305442 -0.291558,0.62489 -0.434392,1.79083 -0.600465,2.421735 -0.393047,1.4923599 -1.223214,2.6594152 -2.140552,3.1398342 1.925069,0.19086 2.370224,-1.7087692 2.756026,-3.6017042 0.221016,-1.084305 0.547995,-2.098825 0.804593,-2.889085 -1.907686,0.937975 -4.359942,1.998735 -5.520318,4.49833 0.105903,-2.59229 -1.4170052,-5.356755 -2.1970072,-7.79238014 -0.02514,0.19853 -0.08966,0.35344 -0.165744,0.5394 C 7.4618938,3.5500167 5.9285218,4.7319667 6.9710478,8.6416916 Z m 4.0114702,1.5273744 c -0.172261,0.0648 -0.752449,0.453345 -0.838794,0.619575 0.219961,-0.283085 0.646815,-1.4802441 0.744747,-1.9467544 0.02359,-0.11297 0.09405,1.1400893 0.09405,1.3271794 z"
     style="fill:#8a3a3a;fill-opacity:1;fill-rule:evenodd;stroke-width:0.65836799"
     id="path3688" />
</svg>
