<?xml version="1.0" encoding="UTF-8" standalone="no"?>
<svg
   xmlns:dc="http://purl.org/dc/elements/1.1/"
   xmlns:cc="http://creativecommons.org/ns#"
   xmlns:rdf="http://www.w3.org/1999/02/22-rdf-syntax-ns#"
   xmlns:svg="http://www.w3.org/2000/svg"
   xmlns="http://www.w3.org/2000/svg"
   xmlns:sodipodi="http://sodipodi.sourceforge.net/DTD/sodipodi-0.dtd"
   xmlns:inkscape="http://www.inkscape.org/namespaces/inkscape"
   id="svg3706"
   version="1.1"
   viewBox="0 0 45.155554 45.155555"
   height="160"
   width="160"
   inkscape:version="0.91 r13725"
   sodipodi:docname="logo-pj-160x160.svg">
  <sodipodi:namedview
     pagecolor="#ffffff"
     bordercolor="#666666"
     borderopacity="1"
     objecttolerance="10"
     gridtolerance="10"
     guidetolerance="10"
     inkscape:pageopacity="0"
     inkscape:pageshadow="2"
     inkscape:window-width="1280"
     inkscape:window-height="695"
     id="namedview3360"
     showgrid="false"
     inkscape:zoom="1"
     inkscape:cx="44.507874"
     inkscape:cy="93.846418"
     inkscape:window-x="0"
     inkscape:window-y="1"
     inkscape:window-maximized="1"
     inkscape:current-layer="svg3706"
     units="px" />
  <defs
     id="defs3700" />
  <metadata
     id="metadata3703">
    <rdf:RDF>
      <cc:Work
         rdf:about="">
        <dc:format>image/svg+xml</dc:format>
        <dc:type
           rdf:resource="http://purl.org/dc/dcmitype/StillImage" />
        <dc:title></dc:title>
      </cc:Work>
    </rdf:RDF>
  </metadata>
  <path
     inkscape:connector-curvature="0"
     d="m 23.138832,9.5467323 c 0.820458,1.7081197 2.019346,5.9380297 2.502392,9.2193997 0.77141,5.23638 -0.62249,7.500239 -2.47988,11.278619 -0.534724,-0.77674 -2.028694,-3.42714 -2.680216,-6.454379 -1.278878,-5.95288 0.83659,-8.59124 2.657704,-14.0436397 z M 13.94584,26.826641 10.990626,18.479192 c 1.488504,0.95528 7.954268,7.092719 8.622644,8.894359 -1.654942,-0.59629 -3.387108,-0.76588 -5.66743,-0.54691 z m 5.087406,-2.939719 c -0.75561,-1.33797 -6.056522,-7.69937 -11.7703657,-8.4934 l 0.472907,0.57901 c 2.9182827,3.17307 3.8889127,7.07879 5.4612927,11.000669 -2.956862,0.48654 -6.3460117,2.49804 -6.3460117,6.01754 0,1.186178 0.887283,2.324498 2.1269914,2.324498 l 0.386858,0 c 0.4677041,0 1.5085823,-0.53148 1.5085823,-1.04267 -2.8891797,0.60736 -3.2879537,-1.407898 -2.2616903,-3.505208 1.1497081,-2.34694 3.6465703,-2.85343 4.8372943,-3.08524 0.847976,3.72654 4.471042,6.331648 8.06066,5.37315 -1.979384,-0.54797 -5.95698,-0.9254 -7.367862,-5.5213 3.814058,0 8.470628,1.93562 8.734502,5.10995 0.840408,-1.14004 2.046932,-4.05233 4.400602,-4.57587 0.13662,0.37686 0.348208,2.12009 0.642696,3.93562 0.264074,1.628448 0.756992,3.876398 -0.1482,5.391478 -0.336692,0.56371 -0.484494,1.15584 -1.667908,1.7412 -2.218902,1.0977 -3.030012,1.20586 -2.670872,1.2 0.21534,-10e-4 0.77918,-0.0251 1.96016,-0.32522 5.322644,-1.39169 3.549858,-7.106628 3.161616,-12.313858 3.484746,0.0224 7.111498,1.50783 8.692306,3.33541 1.43952,1.66437 1.165768,3.715978 -2.105332,3.200218 2.714386,3.92065 6.914578,-2.293168 2.002162,-5.532668 -2.940666,-1.93907 -5.26227,-2.09889 -8.684928,-2.10513 -0.30555,-5.129349 2.51602,-9.132959 8.282996,-11.861089 -0.583116,1.24978 -0.868784,3.58166 -1.20093,4.84347 -0.786094,2.98472 -2.446428,5.31883 -4.281104,6.279669 3.850138,0.38172 4.740448,-3.417539 5.512052,-7.203409 0.442032,-2.16861 1.09599,-4.19765 1.609186,-5.77817 -3.815372,1.87595 -8.719884,3.99747 -11.040636,8.99666 0.211806,-5.18458 -2.83401,-10.71351 -4.394014,-15.5847597 -0.05028,0.39706 -0.17932,0.70688 -0.331488,1.0788 -2.59983,6.3372997 -5.666574,8.7011997 -3.581522,16.5206497 z m 8.02294,3.054749 c -0.344522,0.1296 -1.504898,0.90669 -1.677588,1.23915 0.439922,-0.56617 1.29363,-2.960488 1.489494,-3.893509 0.04718,-0.22594 0.1881,2.280179 0.1881,2.654359 z"
     style="fill:#8a3a3a;fill-opacity:1;fill-rule:evenodd;stroke-width:0.65836799"
     id="path3688" />
</svg>
