<?xml version="1.0" encoding="UTF-8" standalone="no"?>
<svg
   xmlns:dc="http://purl.org/dc/elements/1.1/"
   xmlns:cc="http://creativecommons.org/ns#"
   xmlns:rdf="http://www.w3.org/1999/02/22-rdf-syntax-ns#"
   xmlns:svg="http://www.w3.org/2000/svg"
   xmlns="http://www.w3.org/2000/svg"
   xmlns:sodipodi="http://sodipodi.sourceforge.net/DTD/sodipodi-0.dtd"
   xmlns:inkscape="http://www.inkscape.org/namespaces/inkscape"
   id="svg3706"
   version="1.1"
   viewBox="0 0 9.0311108 9.0311108"
   height="32"
   width="32"
   inkscape:version="0.92.2 5c3e80d, 2017-08-06"
   sodipodi:docname="logo-pj-32x32-white-bg.svg">
  <sodipodi:namedview
     pagecolor="#ffffff"
     bordercolor="#666666"
     borderopacity="1"
     objecttolerance="10"
     gridtolerance="10"
     guidetolerance="10"
     inkscape:pageopacity="0"
     inkscape:pageshadow="2"
     inkscape:window-width="1600"
     inkscape:window-height="793"
     id="namedview3360"
     showgrid="false"
     inkscape:zoom="16"
     inkscape:cx="13.34293"
     inkscape:cy="19.65261"
     inkscape:window-x="0"
     inkscape:window-y="1"
     inkscape:window-maximized="1"
     inkscape:current-layer="svg3706"
     units="px" />
  <defs
     id="defs3700" />
  <metadata
     id="metadata3703">
    <rdf:RDF>
      <cc:Work
         rdf:about="">
        <dc:format>image/svg+xml</dc:format>
        <dc:type
           rdf:resource="http://purl.org/dc/dcmitype/StillImage" />
        <dc:title></dc:title>
      </cc:Work>
    </rdf:RDF>
  </metadata>
  <path
     inkscape:connector-curvature="0"
     d="m 4.610029,1.1232272 c 0.205115,0.42703 0.504837,1.4845075 0.625598,2.30485 C 5.42848,4.7371721 5.080005,5.3031366 4.615657,6.2477316 4.481976,6.0535466 4.108484,5.3909466 3.945603,4.6341371 3.625884,3.1459172 4.154751,2.4863272 4.610029,1.1232272 Z M 2.3117812,5.4432041 1.5729777,3.3563422 C 1.9451037,3.5951622 3.561545,5.1295216 3.728639,5.5799316 3.314903,5.4308591 2.881862,5.3884616 2.3117812,5.4432041 Z M 3.583633,4.7082746 C 3.39473,4.3737821 2.0695022,2.7834322 0.64104123,2.5849247 l 0.1182265,0.1447525 C 1.4888387,3.5229447 1.7314962,4.4993746 2.1245912,5.4798441 c -0.7392155,0.121635 -1.58650297,0.62451 -1.58650297,1.504385 0,0.2965445 0.2218205,0.5811245 0.53174747,0.5811245 h 0.096714 c 0.116926,0 0.377146,-0.13287 0.377146,-0.2606675 C 0.82140073,7.4565261 0.72170723,6.9527116 0.97827273,6.4283841 1.2656997,5.8416491 1.8899157,5.7150266 2.1875967,5.6570741 2.3995907,6.5887091 3.305357,7.2399861 4.202761,7.0003616 3.707915,6.8633691 2.7135167,6.7690116 2.3607962,5.6200366 c 0.9535138,0 2.1176568,0.483905 2.1836248,1.2774875 0.210102,-0.28501 0.511733,-1.0130825 1.100151,-1.1439675 0.03416,0.094215 0.08705,0.5300225 0.160674,0.983905 0.06602,0.407112 0.189248,0.9690995 -0.03705,1.3478695 -0.08417,0.1409275 -0.121124,0.28896 -0.416977,0.4353 -0.554726,0.274425 -0.757503,0.301465 -0.667718,0.3 0.05383,-2.5e-4 0.194795,-0.00628 0.49004,-0.081305 C 6.504202,8.3914036 6.061005,6.9626691 5.963945,5.6608616 6.835131,5.6664616 7.74182,6.0378191 8.137021,6.4947141 8.496902,6.9108066 8.428463,7.4237086 7.610689,7.2947686 8.289286,8.2749311 9.339333,6.7214766 8.11123,5.9116016 7.376063,5.4268341 6.795662,5.3868791 5.939998,5.3853191 5.863608,4.1029822 6.569003,3.1020797 8.010747,2.4200472 7.864968,2.7324922 7.793551,3.3154622 7.710513,3.6309147 7.51399,4.3770946 7.098907,4.9606221 6.640238,5.2008316 7.602773,5.2962616 7.82535,4.3464471 8.01825,3.3999797 8.128758,2.8578272 8.292248,2.3505672 8.420548,1.9554372 7.466704,2.4244247 6.240576,2.9548047 5.660389,4.2046021 5.713339,2.9084572 4.951885,1.5262247 4.561885,0.30841221 c -0.01257,0.099265 -0.04483,0.17672 -0.08287,0.2697 C 3.829057,2.1624372 3.062371,2.7534122 3.583635,4.7082746 Z m 2.005735,0.763687 c -0.08613,0.0324 -0.376225,0.2266725 -0.419397,0.3097875 0.10998,-0.1415425 0.323407,-0.740122 0.372373,-0.973377 0.01179,-0.056485 0.04702,0.5700445 0.04702,0.6635895 z"
     style="fill:#8a3a3a;fill-opacity:0.19607843;fill-rule:evenodd;stroke-width:0.329184;opacity:0.25"
     id="path3688" />
</svg>
